<svg width="512" height="512" viewBox="0 0 512 512" fill="none" xmlns="http://www.w3.org/2000/svg">
  <defs>
    <filter id="shadow" x="-50%" y="-50%" width="200%" height="200%">
      <feGaussianBlur in="SourceAlpha" stdDeviation="10" />
      <feOffset dx="0" dy="10" result="offsetblur" />
      <feComponentTransfer>
        <feFuncA type="linear" slope="0.3" />
      </feComponentTransfer>
      <feMerge>
        <feMergeNode />
        <feMergeNode in="SourceGraphic" />
      </feMerge>
    </filter>
    <linearGradient id="grad1" x1="0%" y1="0%" x2="100%" y2="100%">
      <stop offset="0%" style="stop-color:#4F46E5;stop-opacity:1" />
      <stop offset="100%" style="stop-color:#3B82F6;stop-opacity:1" />
    </linearGradient>
    <linearGradient id="grad2" x1="0%" y1="0%" x2="100%" y2="100%">
      <stop offset="0%" style="stop-color:#60A5FA;stop-opacity:1" />
      <stop offset="100%" style="stop-color:#93C5FD;stop-opacity:1" />
    </linearGradient>
  </defs>

  <!-- Bottom Layer -->
  <g transform="translate(256, 300)">
    <path d="M0 60 L-140 -20 L0 -100 L140 -20 Z" fill="#1E40AF" opacity="0.4" />
    <path d="M-140 -20 L0 60 L0 80 L-140 0 Z" fill="#1E3A8A" opacity="0.4" />
    <path d="M140 -20 L0 60 L0 80 L140 0 Z" fill="#172554" opacity="0.4" />
  </g>

  <!-- Middle Layer -->
  <g transform="translate(256, 260)">
    <path d="M0 60 L-140 -20 L0 -100 L140 -20 Z" fill="#2563EB" />
    <path d="M-140 -20 L0 60 L0 90 L-140 10 Z" fill="#1D4ED8" />
    <path d="M140 -20 L0 60 L0 90 L140 10 Z" fill="#1E40AF" />
  </g>

  <!-- Top Layer -->
  <g transform="translate(256, 220)" filter="url(#shadow)">
    <path d="M0 60 L-140 -20 L0 -100 L140 -20 Z" fill="url(#grad2)" />
    <path d="M-140 -20 L0 60 L0 85 L-140 5 Z" fill="#3B82F6" />
    <path d="M140 -20 L0 60 L0 85 L140 5 Z" fill="#2563EB" />
    
    <!-- AI/Bot Icon -->
    <g transform="translate(0, 0)">
        <rect x="-40" y="-40" width="80" height="60" rx="10" fill="white" fill-opacity="0.9" transform="skewX(10)"/>
        <circle cx="-15" cy="-15" r="8" fill="#3B82F6" transform="skewX(10)"/>
        <circle cx="25" cy="-15" r="8" fill="#3B82F6" transform="skewX(10)"/>
        <path d="M-20 5 Q5 15 30 5" stroke="#3B82F6" stroke-width="4" stroke-linecap="round" fill="none" transform="skewX(10)"/>
        <!-- Antenna -->
        <line x1="5" y1="-40" x2="5" y2="-55" stroke="white" stroke-width="4" transform="skewX(10)"/>
        <circle cx="5" cy="-60" r="4" fill="white" transform="skewX(10)"/>
    </g>
  </g>
</svg>
