<svg width="512" height="512" viewBox="0 0 512 512" fill="none" xmlns="http://www.w3.org/2000/svg">
  <defs>
    <filter id="shadow" x="-50%" y="-50%" width="200%" height="200%">
      <feGaussianBlur in="SourceAlpha" stdDeviation="10" />
      <feOffset dx="0" dy="10" result="offsetblur" />
      <feComponentTransfer>
        <feFuncA type="linear" slope="0.3" />
      </feComponentTransfer>
      <feMerge>
        <feMergeNode />
        <feMergeNode in="SourceGraphic" />
      </feMerge>
    </filter>
    <linearGradient id="grad1" x1="0%" y1="0%" x2="100%" y2="100%">
      <stop offset="0%" style="stop-color:#4F46E5;stop-opacity:1" />
      <stop offset="100%" style="stop-color:#3B82F6;stop-opacity:1" />
    </linearGradient>
    <linearGradient id="grad2" x1="0%" y1="0%" x2="100%" y2="100%">
      <stop offset="0%" style="stop-color:#60A5FA;stop-opacity:1" />
      <stop offset="100%" style="stop-color:#93C5FD;stop-opacity:1" />
    </linearGradient>
  </defs>

  <!-- Bottom Layer -->
  <g transform="translate(256, 300)">
    <path d="M0 60 L-140 -20 L0 -100 L140 -20 Z" fill="#1E40AF" opacity="0.4" />
    <path d="M-140 -20 L0 60 L0 80 L-140 0 Z" fill="#1E3A8A" opacity="0.4" />
    <path d="M140 -20 L0 60 L0 80 L140 0 Z" fill="#172554" opacity="0.4" />
  </g>

  <!-- Middle Layer -->
  <g transform="translate(256, 260)">
    <path d="M0 60 L-140 -20 L0 -100 L140 -20 Z" fill="#2563EB" />
    <path d="M-140 -20 L0 60 L0 90 L-140 10 Z" fill="#1D4ED8" />
    <path d="M140 -20 L0 60 L0 90 L140 10 Z" fill="#1E40AF" />
  </g>

  <!-- Top Layer -->
  <g transform="translate(256, 220)" filter="url(#shadow)">
    <path d="M0 60 L-140 -20 L0 -100 L140 -20 Z" fill="url(#grad2)" />
    <path d="M-140 -20 L0 60 L0 85 L-140 5 Z" fill="#3B82F6" />
    <path d="M140 -20 L0 60 L0 85 L140 5 Z" fill="#2563EB" />
    
    <!-- Medical Cross Icon -->
    <g transform="translate(0, -20)">
        <path d="M-30 -80 L30 -80 L30 -30 L80 -30 L80 30 L30 30 L30 80 L-30 80 L-30 30 L-80 30 L-80 -30 L-30 -30 Z" fill="white" fill-opacity="0.9" transform="scale(0.8) rotate(-45) skewX(10)"/>
    </g>
  </g>
</svg>
